<?xml version="1.0" ?><svg enable-background="new 0 0 32 32" version="1.1" viewBox="0 0 32 32" xml:space="preserve" xmlns="http://www.w3.org/2000/svg" xmlns:xlink="http://www.w3.org/1999/xlink"><g id="Layer_4_copy"><path d="M28.722,12.722C28.722,5.696,23.026,0,16,0S3.278,5.696,3.278,12.722c0,5.666,3.706,10.462,8.825,12.108L16,32l3.898-7.169   C25.016,23.184,28.722,18.388,28.722,12.722z"/></g><g id="Official_copy_2"><path d="M23.2,11.122c0.094,0.501,0.145,1.026,0.145,1.574c0,4.282-2.867,7.327-7.195,7.327   c-4.141,0-7.496-3.354-7.496-7.496s3.354-7.496,7.496-7.496c2.024,0,3.715,0.745,5.013,1.953L19.05,9.098V9.093   c-0.787-0.75-1.785-1.134-2.9-1.134c-2.473,0-4.483,2.089-4.483,4.563c0,2.473,2.01,4.568,4.483,4.568   c2.244,0,3.771-1.284,4.085-3.045H16.15v-2.923L23.2,11.122L23.2,11.122z" fill="#FFFFFF"/></g></svg>