<svg width="80" height="64" viewBox="0 0 80 64" fill="none" xmlns="http://www.w3.org/2000/svg">
<path d="M19.6695 63.781L19.8855 59.407L19.6695 51.361H26.4195L26.2215 53.287H22.1715L22.0635 56.473H25.6635L25.4655 58.381H21.9915L21.9735 59.101L22.0995 61.873H26.4555L26.2575 63.781H19.6695ZM32.8849 62.017C31.9489 63.193 31.1389 63.781 30.4549 63.781C29.6029 63.781 28.9009 63.433 28.3489 62.737C27.8089 62.041 27.5389 61.147 27.5389 60.055C27.5389 58.555 27.9529 57.289 28.7809 56.257C29.6209 55.225 30.6469 54.709 31.8589 54.709L32.8669 54.853V54.511L32.6509 50.299L35.1169 49.849L34.8829 59.101V60.685C34.8829 61.405 35.0629 62.233 35.4229 63.169L33.4789 63.979C33.1309 63.259 32.9329 62.605 32.8849 62.017ZM29.5549 59.119C29.5549 59.887 29.6929 60.487 29.9689 60.919C30.2569 61.351 30.6649 61.567 31.1929 61.567C31.7329 61.567 32.2909 61.351 32.8669 60.919V57.031C32.1469 56.887 31.6129 56.815 31.2649 56.815C30.7249 56.815 30.3049 57.007 30.0049 57.391C29.7049 57.775 29.5549 58.351 29.5549 59.119ZM39.58 54.619L39.364 59.101L39.562 63.331L37.15 63.781L37.366 59.407L37.168 55.069L39.58 54.619ZM37.042 51.991C37.042 51.583 37.198 51.223 37.51 50.911C37.822 50.587 38.182 50.425 38.59 50.425C38.998 50.425 39.31 50.539 39.526 50.767C39.742 50.983 39.85 51.313 39.85 51.757C39.85 52.201 39.694 52.585 39.382 52.909C39.082 53.221 38.728 53.377 38.32 53.377C37.924 53.377 37.612 53.245 37.384 52.981C37.156 52.717 37.042 52.387 37.042 51.991ZM42.2646 55.069V53.107L44.6946 52.639L44.4606 55.069H46.6386L46.4406 56.545H44.3886L44.2986 60.307C44.2986 60.871 44.3526 61.249 44.4606 61.441C44.5686 61.621 44.7666 61.711 45.0546 61.711C45.3426 61.711 45.7266 61.645 46.2066 61.513L46.3146 62.791C45.5226 63.451 44.8266 63.781 44.2266 63.781C43.6266 63.781 43.1346 63.565 42.7506 63.133C42.3666 62.689 42.1746 62.113 42.1746 61.405L42.2826 59.389L42.2646 56.545H41.0226L41.2206 55.069H42.2646ZM49.761 63.781C49.053 63.781 48.471 63.559 48.015 63.115C47.571 62.659 47.349 62.053 47.349 61.297C47.349 60.529 47.697 59.869 48.393 59.317C49.089 58.753 49.935 58.471 50.931 58.471H52.155V58.165C52.155 57.577 52.035 57.175 51.795 56.959C51.555 56.743 51.105 56.635 50.445 56.635C50.169 56.635 49.839 56.695 49.455 56.815C49.083 56.923 48.663 57.097 48.195 57.337L47.673 55.915C48.189 55.555 48.813 55.231 49.545 54.943C50.289 54.655 50.901 54.511 51.381 54.511C53.265 54.511 54.207 55.423 54.207 57.247V60.775C54.207 61.447 54.417 62.197 54.837 63.025L52.929 63.835C52.629 63.259 52.407 62.743 52.263 62.287C51.603 63.283 50.769 63.781 49.761 63.781ZM50.517 61.945C50.997 61.945 51.543 61.699 52.155 61.207V60.001C51.519 59.857 51.003 59.785 50.607 59.785C49.851 59.785 49.473 60.121 49.473 60.793C49.473 61.141 49.569 61.423 49.761 61.639C49.953 61.843 50.205 61.945 50.517 61.945ZM56.2005 55.087L58.3785 54.619C58.4865 55.543 58.5585 56.419 58.5945 57.247C59.6865 55.555 60.7125 54.709 61.6725 54.709L61.4745 57.517C60.7785 57.517 60.2265 57.583 59.8185 57.715C59.4225 57.835 59.0145 58.081 58.5945 58.453V59.101L58.7925 63.331L56.3805 63.781L56.5965 59.407C56.5485 57.799 56.4165 56.359 56.2005 55.087Z" fill="white"/>
<path d="M28.2199 29.9209C28.2199 29.9209 27.3123 29.0059 26.4047 29.0059C25.4971 29.0059 24.5895 30.8351 26.4047 33.5794C28.2199 36.3238 30.0351 35.4096 30.0351 35.4096L28.2199 29.9209ZM48.6924 29.9209C48.6924 29.9209 49.6 29.0059 50.5076 29.0059C51.4152 29.0059 52.3228 30.8351 50.5076 33.5794C48.6924 36.3238 46.8772 35.4096 46.8772 35.4096" fill="#FFB74D"/>
<path d="M49.6749 21.5252C47.1982 18.6059 43.5846 14.9521 43.1346 14.9708H38.4562H33.7778C32.554 15.4124 29.2978 19.2449 27.2281 21.5205C25.6365 23.2702 25.7563 25.9995 25.3474 27.1392L26.6517 28.8786C27.6407 30.1979 28.3219 31.7212 28.6457 33.338C28.9357 34.7874 29.6478 36.1179 30.6929 37.1631C31.9065 38.3766 33.2875 39.4021 34.7818 40.2386C35.0335 40.3949 35.2805 40.5577 35.5388 40.7008L37.76 41.9303C38.1923 42.1698 38.7004 42.1698 39.1327 41.9303L41.354 40.7008C41.6122 40.5577 41.8592 40.3949 42.1109 40.2386C43.6061 39.4021 44.9872 38.3766 46.1998 37.1631C47.245 36.1179 47.957 34.7874 48.2471 33.338C48.5708 31.7212 49.252 30.1979 50.241 28.8786L51.5453 27.1392C51.5771 26.5151 51.6408 23.8419 49.6749 21.5252Z" fill="#FFD180"/>
<path d="M23.4855 10.2877L18.8071 26.1942V42.1006L27.2282 16.8374L26.2925 10.2877H23.4855Z" fill="#FFD600"/>
<path d="M23.4855 10.2877L18.8071 26.1942V42.1006L27.2282 16.8374L26.2925 10.2877H23.4855Z" fill="black" fill-opacity="0.2"/>
<path d="M26.7602 2.80701C25.3954 2.80701 24.0864 3.34919 23.1213 4.31429C22.1562 5.27939 21.614 6.58835 21.614 7.95321C21.614 9.31806 22.1562 10.627 23.1213 11.5921C24.0864 12.5572 25.3954 13.0994 26.7602 13.0994C28.1251 13.0994 29.434 12.5572 30.3991 11.5921C31.3642 10.627 31.9064 9.31806 31.9064 7.95321C31.9064 6.58835 31.3642 5.27939 30.3991 4.31429C29.434 3.34919 28.1251 2.80701 26.7602 2.80701Z" fill="#FFD600"/>
<path d="M38.4562 20.5848L31.9065 15.9064V20.5801L38.4562 25.2585L45.0059 20.5801V15.9064L38.4562 20.5848Z" fill="#FBC02D"/>
<path d="M53.4268 10.2877L58.1051 26.1942V42.1006L49.6841 16.8374L50.6198 10.2877H53.4268Z" fill="#FFD600"/>
<path d="M53.4268 10.2877L58.1051 26.1942V42.1006L49.6841 16.8374L50.6198 10.2877H53.4268Z" fill="black" fill-opacity="0.2"/>
<path d="M50.1521 2.80701C48.7872 2.80701 47.4782 3.34919 46.5131 4.31429C45.548 5.27939 45.0059 6.58835 45.0059 7.95321C45.0059 9.31806 45.548 10.627 46.5131 11.5921C47.4782 12.5572 48.7872 13.0994 50.1521 13.0994C51.5169 13.0994 52.8259 12.5572 53.791 11.5921C54.7561 10.627 55.2983 9.31806 55.2983 7.95321C55.2983 6.58835 54.7561 5.27939 53.791 4.31429C52.8259 3.34919 51.5169 2.80701 50.1521 2.80701Z" fill="#FFD600"/>
<path d="M27.2282 5.61401C26.4837 5.61401 25.7697 5.90975 25.2433 6.43617C24.7169 6.96259 24.4211 7.67656 24.4211 8.42103C24.4211 9.1655 24.7169 9.87947 25.2433 10.4059C25.7697 10.9323 26.4837 11.228 27.2282 11.228C27.9726 11.228 28.6866 10.9323 29.213 10.4059C29.7394 9.87947 30.0352 9.1655 30.0352 8.42103C30.0352 7.67656 29.7394 6.96259 29.213 6.43617C28.6866 5.90975 27.9726 5.61401 27.2282 5.61401ZM49.6843 5.61401C48.9398 5.61401 48.2259 5.90975 47.6994 6.43617C47.173 6.96259 46.8773 7.67656 46.8773 8.42103C46.8773 9.1655 47.173 9.87947 47.6994 10.4059C48.2259 10.9323 48.9398 11.228 49.6843 11.228C50.4288 11.228 51.1427 10.9323 51.6692 10.4059C52.1956 9.87947 52.4913 9.1655 52.4913 8.42103C52.4913 7.67656 52.1956 6.96259 51.6692 6.43617C51.1427 5.90975 50.4288 5.61401 49.6843 5.61401Z" fill="#F4511E"/>
<path d="M35.6491 28.9993L35.6397 28.0674C35.6397 27.1336 34.56 26.1989 32.8364 26.1989C29.7815 26.1998 29.0994 27.1345 29.0994 28.0693C29.0994 29.9387 31.5854 31.8082 32.8364 31.8082C33.2247 31.8082 33.7796 31.8035 33.7796 31.8035L35.6491 28.9993Z" fill="#37474F"/>
<path d="M35.6491 29.0012C35.6491 28.4781 35.6584 27.1298 33.7833 27.1298C31.9082 27.1298 30.9707 29.0012 30.9707 29.9368C30.9707 30.8725 31.9082 33.6795 33.7833 33.6795C35.6584 33.6795 35.6491 30.4805 35.6491 29.0012Z" fill="#3949AB"/>
<path d="M33.7777 28.0702C33.5296 28.0702 33.2916 28.2673 33.1161 28.6183C32.9406 28.9692 32.842 29.4452 32.842 29.9415C32.842 30.4378 32.9406 30.9138 33.1161 31.2648C33.2916 31.6157 33.5296 31.8129 33.7777 31.8129C34.0259 31.8129 34.2639 31.6157 34.4393 31.2648C34.6148 30.9138 34.7134 30.4378 34.7134 29.9415C34.7134 29.4452 34.6148 28.9692 34.4393 28.6183C34.2639 28.2673 34.0259 28.0702 33.7777 28.0702Z" fill="white"/>
<path d="M31.229 31.17C31.3993 30.9885 31.6379 30.8725 31.9064 30.8725C32.4229 30.8725 32.8421 31.2917 32.8421 31.8082C32.8421 32.2751 32.494 32.6447 32.0477 32.7158C31.6809 32.2526 31.4077 31.6893 31.229 31.17Z" fill="#8C9EFF"/>
<path d="M41.2632 29.003L41.2725 28.0711C41.2725 27.1373 42.3523 26.2026 44.0758 26.2026C47.1308 26.2026 47.8129 27.1373 47.8129 28.0721C47.8129 29.9434 45.3268 31.8129 44.0758 31.8129C43.6875 31.8129 43.1327 31.8082 43.1327 31.8082L41.2632 29.003Z" fill="#37474F"/>
<path d="M43.1289 27.1345C41.2538 27.1345 41.2632 28.4828 41.2632 29.0059C41.2632 30.4852 41.2538 33.6842 43.1289 33.6842C45.004 33.6842 45.9415 30.8772 45.9415 29.9415C45.9415 29.0059 45.004 27.1345 43.1289 27.1345Z" fill="#3949AB"/>
<path d="M43.1346 28.0702C42.8865 28.0702 42.6485 28.2673 42.473 28.6183C42.2976 28.9692 42.199 29.4452 42.199 29.9415C42.199 30.4378 42.2976 30.9138 42.473 31.2648C42.6485 31.6157 42.8865 31.8129 43.1346 31.8129C43.3828 31.8129 43.6208 31.6157 43.7963 31.2648C43.9717 30.9138 44.0703 30.4378 44.0703 29.9415C44.0703 29.4452 43.9717 28.9692 43.7963 28.6183C43.6208 28.2673 43.3828 28.0702 43.1346 28.0702Z" fill="white"/>
<path d="M45.6834 31.1747C45.5131 30.9932 45.2745 30.8772 45.006 30.8772C44.4895 30.8772 44.0703 31.2964 44.0703 31.8129C44.0703 32.2798 44.4184 32.6494 44.8647 32.7205C45.2315 32.2573 45.5047 31.694 45.6834 31.1747Z" fill="#8C9EFF"/>
<path d="M38.2289 38.2297C37.9725 37.9013 37.7031 37.513 37.4457 37.061C37.0481 36.3649 36.7861 35.709 36.6102 35.1579C36.6064 35.1504 36.5494 35.0306 36.6214 34.9193C36.6663 34.851 36.7449 34.8033 36.8413 34.8033C37.2726 34.7032 37.849 34.6124 38.5302 34.6199C39.1431 34.6264 39.6652 34.7097 40.0694 34.8033C40.0769 34.8033 40.2144 34.8051 40.2893 34.9193C40.3342 34.9876 40.3435 35.0765 40.3005 35.1579C40.1405 35.6613 39.9066 36.2601 39.5566 36.9001C39.2684 37.4269 38.9634 37.8685 38.6818 38.2297C38.635 38.312 38.5489 38.3626 38.4553 38.3626C38.3655 38.3626 38.2747 38.3186 38.2289 38.2297Z" fill="#FF7043"/>
<path d="M55.2982 14.9707C54.3626 11.228 49.6842 10.2924 49.6842 10.2924C49.6842 10.2924 47.8129 5.61401 42.1988 5.61401C39.3918 5.61401 38.4561 6.54969 38.4561 6.54969C38.4561 6.54969 37.5205 5.61401 34.7134 5.61401C29.0994 5.61401 27.2281 10.2924 27.2281 10.2924C27.2281 10.2924 22.5497 11.228 21.614 14.9707C21.614 14.9707 19.7427 15.9064 19.7427 18.7134C19.7427 20.5848 20.6783 21.5204 20.6783 21.5204C20.6783 21.5204 20.6783 21.8713 20.6783 22.0079C20.6783 22.9436 21.3801 24.523 22.5497 25.2631C22.5497 25.2631 22.5497 28.0702 27.2281 28.0702C27.0166 27.9466 26.5693 27.6463 26.2709 27.0765C25.8199 26.2156 26.0416 25.3773 26.0978 25.1855C26.1679 25.353 26.6068 26.3579 27.7109 26.7256C28.3434 26.9361 28.8412 26.8388 29.0994 26.7752C28.8758 26.443 28.6802 25.9808 28.5146 25.3951C28.13 24.0346 28.4547 22.8659 28.6316 22.3588C28.6783 22.5647 28.8805 23.3478 29.6346 23.884C30.6302 24.5913 31.7483 24.2723 31.8868 24.2302C31.753 24.1048 31.4152 23.7539 31.3216 23.1972C31.1654 22.2624 31.8381 21.5869 31.9064 21.5204C32.0009 21.7946 32.2601 22.4243 32.9038 22.8865C34.0669 23.7221 35.4423 23.2645 35.5864 23.214C35.2664 22.9408 33.7534 21.5972 33.7778 19.6491C33.7834 19.2131 33.8601 18.1848 34.5179 17.527C35.2028 16.8421 36.1169 16.8421 36.1169 16.8421C36.1169 16.8421 38.4561 16.8421 38.4561 18.7134C38.4561 16.8421 40.7953 16.8421 40.7953 16.8421C40.7953 16.8421 41.7095 16.8421 42.3944 17.527C43.0522 18.1848 43.1289 19.2131 43.1345 19.6491C43.1588 21.5972 41.6458 22.9408 41.3249 23.214C41.4699 23.2645 42.8444 23.723 44.0075 22.8865C44.6522 22.4243 44.9113 21.7946 45.0058 21.5204C45.0741 21.5869 45.7478 22.2624 45.5906 23.1972C45.4971 23.7539 45.1593 24.1048 45.0255 24.2302C45.163 24.2723 46.2821 24.5913 47.2776 23.884C48.0318 23.3478 48.2348 22.5647 48.2807 22.3588C48.4575 22.8659 48.7822 24.0346 48.3976 25.3951C48.232 25.9808 48.0355 26.443 47.8129 26.7752C48.072 26.8388 48.5698 26.9361 49.2014 26.7256C50.3055 26.3579 50.7443 25.353 50.8145 25.1855C50.8706 25.3773 51.0924 26.2156 50.6414 27.0765C50.3429 27.6463 49.8957 27.9466 49.6842 28.0702C54.3626 28.0702 54.3626 25.2631 54.3626 25.2631C55.5322 24.5221 56.2339 22.9436 56.2339 22.0079C56.2339 21.8713 56.2339 21.5204 56.2339 21.5204C56.2339 21.5204 57.1696 20.5848 57.1696 18.7134C57.1696 15.9064 55.2982 14.9707 55.2982 14.9707Z" fill="#FFEA00"/>
<path d="M38.4562 21.5204C38.208 21.5204 37.97 21.619 37.7946 21.7945C37.6191 21.97 37.5205 22.208 37.5205 22.4561C37.5205 22.7043 37.6191 22.9423 37.7946 23.1177C37.97 23.2932 38.208 23.3918 38.4562 23.3918C38.7043 23.3918 38.9423 23.2932 39.1178 23.1177C39.2933 22.9423 39.3919 22.7043 39.3919 22.4561C39.3919 22.208 39.2933 21.97 39.1178 21.7945C38.9423 21.619 38.7043 21.5204 38.4562 21.5204Z" fill="#F4511E"/>
<path d="M66.8898 27.0035C66.411 27.0035 65.9321 27.1863 65.5667 27.5517L63.3079 29.8105L67.9863 34.4889L70.2451 32.2301C70.9758 31.4993 70.9758 30.3146 70.2451 29.5839L68.2129 27.5517C67.8475 27.1863 67.3686 27.0035 66.8898 27.0035ZM61.4366 31.6818L50.4516 42.6669C50.4516 42.6669 51.3103 42.5899 51.6303 42.9099C51.9503 43.2299 51.6869 45.3239 52.0798 45.7169C52.4728 46.1099 54.5537 45.8333 54.8521 46.1318C55.1506 46.4302 55.1299 47.3452 55.1299 47.3452L60.6224 41.8527L66.1149 36.3602L61.4366 31.6818ZM49.2728 45.7169L48.3902 48.2169C48.3555 48.3156 48.3375 48.4194 48.3372 48.5239C48.3372 48.7721 48.4357 49.0101 48.6112 49.1856C48.7867 49.361 49.0247 49.4596 49.2728 49.4596C49.3774 49.4592 49.4812 49.4413 49.5798 49.4066C49.5829 49.4054 49.5859 49.4042 49.589 49.403L49.6127 49.3957C49.6146 49.3944 49.6164 49.3932 49.6182 49.392L52.0798 48.5239L50.6763 47.1204L49.2728 45.7169Z" fill="#FFD600"/>
</svg>
