<svg width="257" height="408" viewBox="0 0 257 408" fill="none" xmlns="http://www.w3.org/2000/svg">
<mask id="path-1-inside-1" fill="white">
<path d="M95.0286 0.847448C95.0286 3.39745 98.2323 25.9649 100.521 39.5118C101.753 47.0343 104.147 59.3062 105.027 62.7487C105.309 63.8324 105.485 64.7249 105.449 64.7887C105.309 64.8843 97.0353 52.5806 93.3739 46.8431C89.3605 40.5637 85.9456 34.9537 79.8902 24.6899C73.5885 13.9799 71.8986 11.3024 71.4057 11.3024C70.9481 11.3024 71.0185 11.9399 71.8282 15.5418C72.8139 19.9724 79.503 44.4206 81.4041 50.5087L82.9531 55.4493L81.1576 55.7043C64.8927 57.9674 55.6689 61.8243 46.1282 70.3349C34.6512 80.5987 24.2304 95.8987 10.0074 123.343C1.45245 139.854 -0.906316 145.177 0.29067 145.177C0.889163 145.177 3.98724 142.755 6.66286 140.205C13.6335 133.511 27.5397 120.634 27.6453 120.729C27.7157 120.761 26.8004 122.961 25.6386 125.574C21.5548 134.722 17.1541 147.568 12.683 163.506C10.0426 173.004 9.54971 176.096 10.7115 176.096C11.4156 176.096 14.3025 173.068 19.02 167.426C24.4416 160.892 24.4416 160.86 23.2446 163.537C22.6814 164.781 22.1181 166.215 21.9772 166.789C21.6604 168.223 22.4701 168.127 24.4064 166.534L25.9203 165.259L26.1667 171.092C26.7652 185.882 29.5464 199.142 35.1441 214.346C41.9035 232.547 47.3252 245.839 48.6278 247.337C49.9656 248.899 50.1416 248.07 50.3177 238.507L50.4937 229.551L53.6974 233.184C59.9287 240.261 69.7511 248.166 78.306 253.074C81.5097 254.891 91.4024 259.513 93.55 260.182C94.3597 260.437 94.6765 260.724 94.6061 261.075C94.5357 261.426 81.7913 266.749 55.9505 277.299L17.4005 293.014L16.802 294.384C16.0275 296.169 15.9923 298.879 16.7316 300.281C17.5414 301.811 19.7945 303.532 22.2941 304.552C27.2933 306.561 32.9966 307.549 47.6772 309.015C61.0553 310.322 63.0268 310.577 67.2163 311.278C75.4192 312.681 79.2918 314.402 80.6296 317.175C81.2985 318.514 81.2985 318.577 80.4183 325.176C78.0948 342.739 77.3907 351.281 77.1794 364.414C76.9682 376.207 77.2498 381.817 78.3412 388.065C80.0311 398.01 83.9741 404.959 89.1141 407.126C90.0294 407.509 90.8744 407.827 90.9448 407.827C91.0152 407.827 95.275 401.166 100.345 393.006C106.893 382.582 109.815 378.184 110.202 378.184C110.554 378.184 111.962 377.61 113.406 376.941C114.814 376.239 117.243 375.347 118.792 374.901C127.206 372.51 147.978 369.928 166.496 368.94C175.121 368.462 180.578 368.812 186.915 370.215C188.358 370.566 190.999 370.98 192.724 371.203C198.321 371.841 203.637 374.008 208.496 377.546C211.524 379.746 212.967 381.276 215.22 384.622C218.529 389.563 227.331 395.587 230.851 395.332C231.872 395.269 232.26 395.014 232.858 394.121C233.457 393.165 233.597 392.336 233.703 388.575C233.809 384.049 233.527 381.148 232.295 374.04C229.936 360.652 223.81 339.009 218.424 325.112C214.058 313.828 213.953 313.477 213.882 311.023C213.847 308.983 213.953 308.632 214.903 307.389C216.206 305.7 218.424 304.361 224.937 301.206C233.668 296.966 239.336 293.747 245.708 289.412C250.214 286.32 251.341 285.141 251.341 283.483C251.341 281.794 250.672 280.71 248.524 278.957C244.3 275.514 235.851 272.008 220.008 267.099C201.948 261.521 203.145 261.999 198.779 258.716C197.195 257.505 195.153 256.071 194.238 255.497C192.759 254.604 188.288 252.596 185.929 251.767C185.119 251.481 185.155 251.417 186.809 250.397C194.484 245.488 204.06 237.137 208.566 231.336C209.165 230.571 209.728 229.965 209.904 229.965C210.045 229.965 210.151 232.101 210.151 234.714C210.151 237.36 210.327 239.878 210.538 240.388L210.925 241.281L211.735 240.42C212.192 239.942 213.389 237.647 214.375 235.32C216.382 230.73 225.852 206.218 227.049 202.616C227.436 201.373 228 200.289 228.317 200.194C228.669 200.066 228.809 199.62 228.774 198.664C228.774 197.899 229.232 195.508 229.83 193.309C230.922 189.261 232.682 181.005 232.682 179.889C232.682 179.571 232.788 179.284 232.893 179.284C232.999 179.284 235.111 181.005 237.611 183.141C242.364 187.189 245.462 189.484 246.236 189.484C248.067 189.484 246.799 186.36 238.315 169.881L234.548 162.549L234.301 156.27C234.09 149.767 233.773 146.229 232.823 140.301C232.506 138.388 232.33 136.794 232.4 136.731C232.471 136.667 235.851 138.771 239.899 141.416C252.96 149.863 256.023 151.584 256.727 150.947C257.502 150.246 254.791 146.038 245.18 132.906C234.654 118.53 228.704 111.199 220.536 102.656C218.213 100.234 215.22 97.0462 213.917 95.5799C211.594 92.9981 209.165 90.9262 206.63 89.3962C205.961 88.9818 204.306 87.8662 203.004 86.9099L200.61 85.1568L201.772 84.3281C207.616 80.2162 217.614 71.6418 229.302 60.7724C241.413 49.4568 245.391 45.0899 243.596 45.0899C242.716 45.0899 238.209 46.8749 227.753 51.4012C216.135 56.4056 208.989 59.3699 200.117 62.8762C192.266 65.9999 182.866 69.5381 182.761 69.4424C182.69 69.4106 183.324 68.8049 184.169 68.1674C193.428 60.8043 220.008 34.4756 220.008 32.6268C220.008 31.6387 216.945 32.9456 200.821 40.7868C190.893 45.6318 171.213 54.3974 161.919 58.0949C150.231 62.7487 142.38 65.6812 142.662 65.2668C152.449 49.9668 156.392 44.1337 166.39 30.1087C174.417 18.8568 175.015 17.9006 174.875 17.0718C174.769 16.4343 174.769 16.4343 173.255 17.1037C170.58 18.3468 152.414 30.9693 142.274 38.6512C135.339 43.9106 132.206 46.4606 125.622 52.3256L119.778 57.5531L119.25 56.3418C111.786 39.7349 108.477 31.8618 101.542 14.3306C98.9716 7.82807 96.6481 2.02682 96.3312 1.38932C95.5919 -0.236302 95.0286 -0.459427 95.0286 0.847448Z"/>
</mask>
<path d="M95.0286 0.847448C95.0286 3.39745 98.2323 25.9649 100.521 39.5118C101.753 47.0343 104.147 59.3062 105.027 62.7487C105.309 63.8324 105.485 64.7249 105.449 64.7887C105.309 64.8843 97.0353 52.5806 93.3739 46.8431C89.3605 40.5637 85.9456 34.9537 79.8902 24.6899C73.5885 13.9799 71.8986 11.3024 71.4057 11.3024C70.9481 11.3024 71.0185 11.9399 71.8282 15.5418C72.8139 19.9724 79.503 44.4206 81.4041 50.5087L82.9531 55.4493L81.1576 55.7043C64.8927 57.9674 55.6689 61.8243 46.1282 70.3349C34.6512 80.5987 24.2304 95.8987 10.0074 123.343C1.45245 139.854 -0.906316 145.177 0.29067 145.177C0.889163 145.177 3.98724 142.755 6.66286 140.205C13.6335 133.511 27.5397 120.634 27.6453 120.729C27.7157 120.761 26.8004 122.961 25.6386 125.574C21.5548 134.722 17.1541 147.568 12.683 163.506C10.0426 173.004 9.54971 176.096 10.7115 176.096C11.4156 176.096 14.3025 173.068 19.02 167.426C24.4416 160.892 24.4416 160.86 23.2446 163.537C22.6814 164.781 22.1181 166.215 21.9772 166.789C21.6604 168.223 22.4701 168.127 24.4064 166.534L25.9203 165.259L26.1667 171.092C26.7652 185.882 29.5464 199.142 35.1441 214.346C41.9035 232.547 47.3252 245.839 48.6278 247.337C49.9656 248.899 50.1416 248.07 50.3177 238.507L50.4937 229.551L53.6974 233.184C59.9287 240.261 69.7511 248.166 78.306 253.074C81.5097 254.891 91.4024 259.513 93.55 260.182C94.3597 260.437 94.6765 260.724 94.6061 261.075C94.5357 261.426 81.7913 266.749 55.9505 277.299L17.4005 293.014L16.802 294.384C16.0275 296.169 15.9923 298.879 16.7316 300.281C17.5414 301.811 19.7945 303.532 22.2941 304.552C27.2933 306.561 32.9966 307.549 47.6772 309.015C61.0553 310.322 63.0268 310.577 67.2163 311.278C75.4192 312.681 79.2918 314.402 80.6296 317.175C81.2985 318.514 81.2985 318.577 80.4183 325.176C78.0948 342.739 77.3907 351.281 77.1794 364.414C76.9682 376.207 77.2498 381.817 78.3412 388.065C80.0311 398.01 83.9741 404.959 89.1141 407.126C90.0294 407.509 90.8744 407.827 90.9448 407.827C91.0152 407.827 95.275 401.166 100.345 393.006C106.893 382.582 109.815 378.184 110.202 378.184C110.554 378.184 111.962 377.61 113.406 376.941C114.814 376.239 117.243 375.347 118.792 374.901C127.206 372.51 147.978 369.928 166.496 368.94C175.121 368.462 180.578 368.812 186.915 370.215C188.358 370.566 190.999 370.98 192.724 371.203C198.321 371.841 203.637 374.008 208.496 377.546C211.524 379.746 212.967 381.276 215.22 384.622C218.529 389.563 227.331 395.587 230.851 395.332C231.872 395.269 232.26 395.014 232.858 394.121C233.457 393.165 233.597 392.336 233.703 388.575C233.809 384.049 233.527 381.148 232.295 374.04C229.936 360.652 223.81 339.009 218.424 325.112C214.058 313.828 213.953 313.477 213.882 311.023C213.847 308.983 213.953 308.632 214.903 307.389C216.206 305.7 218.424 304.361 224.937 301.206C233.668 296.966 239.336 293.747 245.708 289.412C250.214 286.32 251.341 285.141 251.341 283.483C251.341 281.794 250.672 280.71 248.524 278.957C244.3 275.514 235.851 272.008 220.008 267.099C201.948 261.521 203.145 261.999 198.779 258.716C197.195 257.505 195.153 256.071 194.238 255.497C192.759 254.604 188.288 252.596 185.929 251.767C185.119 251.481 185.155 251.417 186.809 250.397C194.484 245.488 204.06 237.137 208.566 231.336C209.165 230.571 209.728 229.965 209.904 229.965C210.045 229.965 210.151 232.101 210.151 234.714C210.151 237.36 210.327 239.878 210.538 240.388L210.925 241.281L211.735 240.42C212.192 239.942 213.389 237.647 214.375 235.32C216.382 230.73 225.852 206.218 227.049 202.616C227.436 201.373 228 200.289 228.317 200.194C228.669 200.066 228.809 199.62 228.774 198.664C228.774 197.899 229.232 195.508 229.83 193.309C230.922 189.261 232.682 181.005 232.682 179.889C232.682 179.571 232.788 179.284 232.893 179.284C232.999 179.284 235.111 181.005 237.611 183.141C242.364 187.189 245.462 189.484 246.236 189.484C248.067 189.484 246.799 186.36 238.315 169.881L234.548 162.549L234.301 156.27C234.09 149.767 233.773 146.229 232.823 140.301C232.506 138.388 232.33 136.794 232.4 136.731C232.471 136.667 235.851 138.771 239.899 141.416C252.96 149.863 256.023 151.584 256.727 150.947C257.502 150.246 254.791 146.038 245.18 132.906C234.654 118.53 228.704 111.199 220.536 102.656C218.213 100.234 215.22 97.0462 213.917 95.5799C211.594 92.9981 209.165 90.9262 206.63 89.3962C205.961 88.9818 204.306 87.8662 203.004 86.9099L200.61 85.1568L201.772 84.3281C207.616 80.2162 217.614 71.6418 229.302 60.7724C241.413 49.4568 245.391 45.0899 243.596 45.0899C242.716 45.0899 238.209 46.8749 227.753 51.4012C216.135 56.4056 208.989 59.3699 200.117 62.8762C192.266 65.9999 182.866 69.5381 182.761 69.4424C182.69 69.4106 183.324 68.8049 184.169 68.1674C193.428 60.8043 220.008 34.4756 220.008 32.6268C220.008 31.6387 216.945 32.9456 200.821 40.7868C190.893 45.6318 171.213 54.3974 161.919 58.0949C150.231 62.7487 142.38 65.6812 142.662 65.2668C152.449 49.9668 156.392 44.1337 166.39 30.1087C174.417 18.8568 175.015 17.9006 174.875 17.0718C174.769 16.4343 174.769 16.4343 173.255 17.1037C170.58 18.3468 152.414 30.9693 142.274 38.6512C135.339 43.9106 132.206 46.4606 125.622 52.3256L119.778 57.5531L119.25 56.3418C111.786 39.7349 108.477 31.8618 101.542 14.3306C98.9716 7.82807 96.6481 2.02682 96.3312 1.38932C95.5919 -0.236302 95.0286 -0.459427 95.0286 0.847448Z" fill="#C859CA" fill-opacity="0.97" stroke="black" stroke-width="2" mask="url(#path-1-inside-1)"/>
</svg>
