<svg width="67" height="90" viewBox="0 0 67 90" fill="none" xmlns="http://www.w3.org/2000/svg">
<mask id="path-1-inside-1" fill="white">
<path d="M24.7883 0.187012C24.7883 0.749748 25.6239 5.72998 26.2209 8.71953C26.5423 10.3796 27.1667 13.0878 27.3963 13.8475C27.4698 14.0866 27.5157 14.2836 27.5065 14.2977C27.4698 14.3188 25.3117 11.6036 24.3566 10.3374C23.3097 8.95165 22.419 7.71363 20.8394 5.44861C19.1956 3.08511 18.7548 2.49424 18.6262 2.49424C18.5068 2.49424 18.5252 2.63492 18.7364 3.42979C18.9936 4.40755 20.7384 9.8028 21.2343 11.1463L21.6384 12.2366L21.17 12.2929C16.9273 12.7923 14.5213 13.6435 12.0326 15.5216C9.03879 17.7866 6.32051 21.1631 2.61043 27.2195C0.378872 30.8633 -0.236413 32.038 0.0758214 32.038C0.231939 32.038 1.04007 31.5034 1.73801 30.9406C3.55632 29.4635 7.18375 26.6216 7.2113 26.6427C7.22966 26.6498 6.9909 27.1351 6.68785 27.7119C5.62257 29.7308 4.47465 32.5655 3.30837 36.0827C2.61961 38.1789 2.49105 38.8612 2.7941 38.8612C2.97776 38.8612 3.7308 38.1929 4.96137 36.9479C6.37561 35.5059 6.37561 35.4988 6.06338 36.0897C5.91644 36.364 5.76951 36.6806 5.73278 36.8072C5.65012 37.1237 5.86134 37.1026 6.36643 36.7509L6.76131 36.4695L6.8256 37.7568C6.98171 41.0207 7.7072 43.9469 9.16735 47.3023C10.9306 51.3188 12.3448 54.2521 12.6846 54.5827C13.0336 54.9274 13.0795 54.7445 13.1254 52.6342L13.1713 50.6576L14.007 51.4595C15.6324 53.0211 18.1946 54.7656 20.4262 55.8488C21.2618 56.2498 23.8424 57.2697 24.4026 57.4175C24.6138 57.4737 24.6964 57.537 24.6781 57.6144C24.6597 57.6918 21.3353 58.8665 14.5947 61.1948L4.53894 64.6627L4.38282 64.9652C4.18079 65.3591 4.1716 65.957 4.36445 66.2665C4.57567 66.6042 5.16341 66.984 5.81543 67.2091C7.11946 67.6523 8.60717 67.8703 12.4366 68.1939C15.9263 68.4823 16.4406 68.5386 17.5334 68.6933C19.6731 69.0028 20.6833 69.3827 21.0323 69.9947C21.2067 70.2901 21.2067 70.3042 20.9772 71.7603C20.3711 75.6361 20.1874 77.5213 20.1323 80.4194C20.0772 83.022 20.1507 84.2601 20.4353 85.6388C20.8761 87.8335 21.9047 89.3669 23.2455 89.8452C23.4842 89.9297 23.7046 90 23.723 90C23.7414 90 24.8525 88.5298 26.1749 86.7291C27.8831 84.4289 28.6453 83.4582 28.7463 83.4582C28.8381 83.4582 29.2055 83.3316 29.582 83.1838C29.9493 83.0291 30.583 82.8321 30.987 82.7336C33.1819 82.2061 38.6 81.6363 43.4305 81.4182C45.6804 81.3127 47.1038 81.3901 48.7568 81.6996C49.1334 81.777 49.8221 81.8684 50.2721 81.9177C51.7323 82.0584 53.1189 82.5367 54.3862 83.3175C55.176 83.8028 55.5525 84.1405 56.1403 84.8791C57.0035 85.9694 59.2993 87.2989 60.2177 87.2426C60.484 87.2285 60.585 87.1722 60.7411 86.9753C60.8973 86.7643 60.934 86.5814 60.9615 85.7513C60.9891 84.7525 60.9156 84.1124 60.5942 82.5437C59.9789 79.5893 58.381 74.8131 56.976 71.7462C55.8372 69.2561 55.8097 69.1787 55.7913 68.6371C55.7821 68.1869 55.8097 68.1095 56.0576 67.8352C56.3974 67.4623 56.976 67.1669 58.6749 66.4705C60.9524 65.535 62.4309 64.8245 64.0931 63.8679C65.2685 63.1855 65.5624 62.9253 65.5624 62.5595C65.5624 62.1867 65.3879 61.9475 64.8277 61.5606C63.7257 60.8009 61.5217 60.0272 57.3892 58.9439C52.6781 57.7129 52.9904 57.8184 51.8516 57.0939C51.4384 56.8266 50.9058 56.5101 50.667 56.3834C50.2813 56.1865 49.115 55.7433 48.4997 55.5604C48.2885 55.4971 48.2977 55.4831 48.7293 55.258C50.7313 54.1747 53.2291 52.3317 54.4046 51.0515C54.5607 50.8827 54.7077 50.749 54.7536 50.749C54.7903 50.749 54.8179 51.2203 54.8179 51.7971C54.8179 52.381 54.8638 52.9367 54.9189 53.0492L55.0199 53.2462L55.2311 53.0562C55.3505 52.9507 55.6627 52.4443 55.9199 51.9308C56.4433 50.9178 58.9136 45.5085 59.2259 44.7137C59.3269 44.4393 59.4738 44.2002 59.5565 44.1791C59.6483 44.1509 59.685 44.0524 59.6759 43.8414C59.6759 43.6726 59.7952 43.145 59.9514 42.6597C60.236 41.7663 60.6952 39.9445 60.6952 39.6983C60.6952 39.6279 60.7228 39.5646 60.7503 39.5646C60.7779 39.5646 61.3289 39.9445 61.9809 40.4157C63.2206 41.3091 64.0288 41.8156 64.2308 41.8156C64.7084 41.8156 64.3777 41.1262 62.1646 37.4895L61.1819 35.8716L61.1177 34.4859C61.0626 33.0509 60.9799 32.2701 60.732 30.9617C60.6493 30.5397 60.6034 30.188 60.6218 30.1739C60.6401 30.1598 61.5217 30.6241 62.5778 31.2079C65.9848 33.072 66.7838 33.4519 66.9675 33.3112C67.1695 33.1564 66.4624 32.2279 63.9553 29.3298C61.2095 26.1574 59.6575 24.5395 57.527 22.6543C56.9209 22.1197 56.1403 21.4163 55.8005 21.0927C55.1944 20.523 54.5607 20.0657 53.8995 19.7281C53.725 19.6366 53.2934 19.3904 52.9536 19.1794L52.3292 18.7925L52.6322 18.6096C54.1567 17.7022 56.7647 15.81 59.8136 13.4114C62.9727 10.9142 64.0104 9.95052 63.5421 9.95052C63.3125 9.95052 62.137 10.3444 59.4095 11.3433C56.379 12.4477 54.5148 13.1018 52.2006 13.8756C50.1527 14.565 47.7008 15.3458 47.6732 15.3247C47.6548 15.3176 47.8201 15.184 48.0405 15.0433C50.4558 13.4184 57.3892 7.60812 57.3892 7.20013C57.3892 6.98207 56.5903 7.27048 52.3843 9.00089C49.7946 10.0701 44.6611 12.0045 42.2367 12.8205C39.1878 13.8475 37.1399 14.4946 37.2134 14.4032C39.7663 11.0267 40.7949 9.73949 43.4029 6.64443C45.4967 4.16135 45.6529 3.95032 45.6161 3.76743C45.5886 3.62675 45.5886 3.62675 45.1937 3.77447C44.4958 4.0488 39.7571 6.83435 37.1123 8.5296C35.3032 9.69025 34.4859 10.253 32.7686 11.5473L31.2442 12.7009L31.1064 12.4336C29.1595 8.76877 28.2963 7.03131 26.4872 3.16249C25.8168 1.72751 25.2107 0.447273 25.128 0.306595C24.9352 -0.0521545 24.7883 -0.101395 24.7883 0.187012Z"/>
</mask>
<path d="M24.7883 0.187012C24.7883 0.749748 25.6239 5.72998 26.2209 8.71953C26.5423 10.3796 27.1667 13.0878 27.3963 13.8475C27.4698 14.0866 27.5157 14.2836 27.5065 14.2977C27.4698 14.3188 25.3117 11.6036 24.3566 10.3374C23.3097 8.95165 22.419 7.71363 20.8394 5.44861C19.1956 3.08511 18.7548 2.49424 18.6262 2.49424C18.5068 2.49424 18.5252 2.63492 18.7364 3.42979C18.9936 4.40755 20.7384 9.8028 21.2343 11.1463L21.6384 12.2366L21.17 12.2929C16.9273 12.7923 14.5213 13.6435 12.0326 15.5216C9.03879 17.7866 6.32051 21.1631 2.61043 27.2195C0.378872 30.8633 -0.236413 32.038 0.0758214 32.038C0.231939 32.038 1.04007 31.5034 1.73801 30.9406C3.55632 29.4635 7.18375 26.6216 7.2113 26.6427C7.22966 26.6498 6.9909 27.1351 6.68785 27.7119C5.62257 29.7308 4.47465 32.5655 3.30837 36.0827C2.61961 38.1789 2.49105 38.8612 2.7941 38.8612C2.97776 38.8612 3.7308 38.1929 4.96137 36.9479C6.37561 35.5059 6.37561 35.4988 6.06338 36.0897C5.91644 36.364 5.76951 36.6806 5.73278 36.8072C5.65012 37.1237 5.86134 37.1026 6.36643 36.7509L6.76131 36.4695L6.8256 37.7568C6.98171 41.0207 7.7072 43.9469 9.16735 47.3023C10.9306 51.3188 12.3448 54.2521 12.6846 54.5827C13.0336 54.9274 13.0795 54.7445 13.1254 52.6342L13.1713 50.6576L14.007 51.4595C15.6324 53.0211 18.1946 54.7656 20.4262 55.8488C21.2618 56.2498 23.8424 57.2697 24.4026 57.4175C24.6138 57.4737 24.6964 57.537 24.6781 57.6144C24.6597 57.6918 21.3353 58.8665 14.5947 61.1948L4.53894 64.6627L4.38282 64.9652C4.18079 65.3591 4.1716 65.957 4.36445 66.2665C4.57567 66.6042 5.16341 66.984 5.81543 67.2091C7.11946 67.6523 8.60717 67.8703 12.4366 68.1939C15.9263 68.4823 16.4406 68.5386 17.5334 68.6933C19.6731 69.0028 20.6833 69.3827 21.0323 69.9947C21.2067 70.2901 21.2067 70.3042 20.9772 71.7603C20.3711 75.6361 20.1874 77.5213 20.1323 80.4194C20.0772 83.022 20.1507 84.2601 20.4353 85.6388C20.8761 87.8335 21.9047 89.3669 23.2455 89.8452C23.4842 89.9297 23.7046 90 23.723 90C23.7414 90 24.8525 88.5298 26.1749 86.7291C27.8831 84.4289 28.6453 83.4582 28.7463 83.4582C28.8381 83.4582 29.2055 83.3316 29.582 83.1838C29.9493 83.0291 30.583 82.8321 30.987 82.7336C33.1819 82.2061 38.6 81.6363 43.4305 81.4182C45.6804 81.3127 47.1038 81.3901 48.7568 81.6996C49.1334 81.777 49.8221 81.8684 50.2721 81.9177C51.7323 82.0584 53.1189 82.5367 54.3862 83.3175C55.176 83.8028 55.5525 84.1405 56.1403 84.8791C57.0035 85.9694 59.2993 87.2989 60.2177 87.2426C60.484 87.2285 60.585 87.1722 60.7411 86.9753C60.8973 86.7643 60.934 86.5814 60.9615 85.7513C60.9891 84.7525 60.9156 84.1124 60.5942 82.5437C59.9789 79.5893 58.381 74.8131 56.976 71.7462C55.8372 69.2561 55.8097 69.1787 55.7913 68.6371C55.7821 68.1869 55.8097 68.1095 56.0576 67.8352C56.3974 67.4623 56.976 67.1669 58.6749 66.4705C60.9524 65.535 62.4309 64.8245 64.0931 63.8679C65.2685 63.1855 65.5624 62.9253 65.5624 62.5595C65.5624 62.1867 65.3879 61.9475 64.8277 61.5606C63.7257 60.8009 61.5217 60.0272 57.3892 58.9439C52.6781 57.7129 52.9904 57.8184 51.8516 57.0939C51.4384 56.8266 50.9058 56.5101 50.667 56.3834C50.2813 56.1865 49.115 55.7433 48.4997 55.5604C48.2885 55.4971 48.2977 55.4831 48.7293 55.258C50.7313 54.1747 53.2291 52.3317 54.4046 51.0515C54.5607 50.8827 54.7077 50.749 54.7536 50.749C54.7903 50.749 54.8179 51.2203 54.8179 51.7971C54.8179 52.381 54.8638 52.9367 54.9189 53.0492L55.0199 53.2462L55.2311 53.0562C55.3505 52.9507 55.6627 52.4443 55.9199 51.9308C56.4433 50.9178 58.9136 45.5085 59.2259 44.7137C59.3269 44.4393 59.4738 44.2002 59.5565 44.1791C59.6483 44.1509 59.685 44.0524 59.6759 43.8414C59.6759 43.6726 59.7952 43.145 59.9514 42.6597C60.236 41.7663 60.6952 39.9445 60.6952 39.6983C60.6952 39.6279 60.7228 39.5646 60.7503 39.5646C60.7779 39.5646 61.3289 39.9445 61.9809 40.4157C63.2206 41.3091 64.0288 41.8156 64.2308 41.8156C64.7084 41.8156 64.3777 41.1262 62.1646 37.4895L61.1819 35.8716L61.1177 34.4859C61.0626 33.0509 60.9799 32.2701 60.732 30.9617C60.6493 30.5397 60.6034 30.188 60.6218 30.1739C60.6401 30.1598 61.5217 30.6241 62.5778 31.2079C65.9848 33.072 66.7838 33.4519 66.9675 33.3112C67.1695 33.1564 66.4624 32.2279 63.9553 29.3298C61.2095 26.1574 59.6575 24.5395 57.527 22.6543C56.9209 22.1197 56.1403 21.4163 55.8005 21.0927C55.1944 20.523 54.5607 20.0657 53.8995 19.7281C53.725 19.6366 53.2934 19.3904 52.9536 19.1794L52.3292 18.7925L52.6322 18.6096C54.1567 17.7022 56.7647 15.81 59.8136 13.4114C62.9727 10.9142 64.0104 9.95052 63.5421 9.95052C63.3125 9.95052 62.137 10.3444 59.4095 11.3433C56.379 12.4477 54.5148 13.1018 52.2006 13.8756C50.1527 14.565 47.7008 15.3458 47.6732 15.3247C47.6548 15.3176 47.8201 15.184 48.0405 15.0433C50.4558 13.4184 57.3892 7.60812 57.3892 7.20013C57.3892 6.98207 56.5903 7.27048 52.3843 9.00089C49.7946 10.0701 44.6611 12.0045 42.2367 12.8205C39.1878 13.8475 37.1399 14.4946 37.2134 14.4032C39.7663 11.0267 40.7949 9.73949 43.4029 6.64443C45.4967 4.16135 45.6529 3.95032 45.6161 3.76743C45.5886 3.62675 45.5886 3.62675 45.1937 3.77447C44.4958 4.0488 39.7571 6.83435 37.1123 8.5296C35.3032 9.69025 34.4859 10.253 32.7686 11.5473L31.2442 12.7009L31.1064 12.4336C29.1595 8.76877 28.2963 7.03131 26.4872 3.16249C25.8168 1.72751 25.2107 0.447273 25.128 0.306595C24.9352 -0.0521545 24.7883 -0.101395 24.7883 0.187012Z" fill="#FF8000" stroke="black" stroke-width="2" mask="url(#path-1-inside-1)"/>
</svg>
