<svg width="255" height="115" viewBox="0 0 255 115" fill="none" xmlns="http://www.w3.org/2000/svg">
<g opacity="0.98" filter="url(#filter0_d)">
<rect width="254" height="115" rx="10" fill="#032C3D"/>
</g>
<g filter="url(#filter1_d)">
<path d="M85.6943 73.5039H80.665V90H60.6987V73.5039H19.3076C20.2129 69.6481 21.3864 65.7085 22.8281 61.6851C24.2699 57.6616 25.896 53.6885 27.7065 49.7656C29.5506 45.8428 31.5456 42.0037 33.6914 38.2485C35.8372 34.4933 38.0837 30.9561 40.4307 27.6367H54.3618C51.4784 32.4313 49.0643 37.0247 47.1196 41.417C45.2085 45.8092 43.6662 49.7153 42.4927 53.1353C41.118 57.1252 40.0451 60.8468 39.2739 64.3003H60.6987V17.5781H80.665V64.3003H85.6943V73.5039Z" fill="#7BBDC3"/>
</g>
<g filter="url(#filter2_d)">
<path d="M100.406 87H88.7754V44.8125H111.568C113.541 44.8125 115.426 45.0762 117.223 45.6035C119.039 46.1309 120.641 46.9316 122.027 48.0059C123.414 49.0605 124.518 50.3984 125.338 52.0195C126.178 53.6211 126.598 55.5059 126.598 57.6738C126.598 59.041 126.402 60.3301 126.012 61.541C125.621 62.7324 125.074 63.8262 124.371 64.8223C123.688 65.8184 122.877 66.7168 121.939 67.5176C121.002 68.3184 119.977 68.9922 118.863 69.5391C117.75 70.0859 116.568 70.5059 115.318 70.7988C114.088 71.0918 112.838 71.2383 111.568 71.2383H100.406V87ZM114.82 57.6738C114.82 54.959 114.127 52.8301 112.74 51.2871C111.373 49.7246 109.303 48.9434 106.529 48.9434H100.406V67.2539H106.529C108.014 67.2539 109.273 67.0195 110.309 66.5508C111.363 66.0625 112.223 65.3887 112.887 64.5293C113.551 63.6699 114.039 62.6641 114.352 61.5117C114.664 60.3398 114.82 59.0605 114.82 57.6738ZM139.459 70.9453C140.67 71.2188 141.881 71.4336 143.092 71.5898C144.303 71.7461 145.523 71.8242 146.754 71.8242C148.043 71.8242 149.234 71.707 150.328 71.4727C151.441 71.2188 152.398 70.8086 153.199 70.2422C154.02 69.6562 154.664 68.8848 155.133 67.9277C155.602 66.9707 155.836 65.7793 155.836 64.3535C155.836 63.2012 155.68 62.1465 155.367 61.1895C155.055 60.2324 154.586 59.4121 153.961 58.7285C153.355 58.0449 152.604 57.5176 151.705 57.1465C150.807 56.7559 149.762 56.5605 148.57 56.5605C147.457 56.5605 146.451 56.7656 145.553 57.1758C144.674 57.5859 143.893 58.1426 143.209 58.8457C142.545 59.5293 141.969 60.3301 141.48 61.248C141.012 62.166 140.621 63.123 140.309 64.1191C139.996 65.1152 139.771 66.1211 139.635 67.1367C139.498 68.1523 139.43 69.1094 139.43 70.0078C139.43 70.1641 139.43 70.3203 139.43 70.4766C139.43 70.6328 139.439 70.7891 139.459 70.9453ZM163.863 64.2656C163.863 65.6523 163.639 66.8926 163.189 67.9863C162.74 69.0605 162.125 70.0078 161.344 70.8281C160.582 71.6484 159.693 72.3418 158.678 72.9082C157.662 73.4746 156.578 73.9434 155.426 74.3145C154.273 74.666 153.082 74.9199 151.852 75.0762C150.641 75.2324 149.459 75.3105 148.307 75.3105C146.842 75.3105 145.396 75.2129 143.971 75.0176C142.545 74.8027 141.139 74.4707 139.752 74.0215C139.967 75.3105 140.309 76.541 140.777 77.7129C141.246 78.8652 141.871 79.8809 142.652 80.7598C143.434 81.6191 144.391 82.3027 145.523 82.8105C146.676 83.3184 148.033 83.5723 149.596 83.5723C150.631 83.5723 151.617 83.416 152.555 83.1035C153.492 82.791 154.352 82.3516 155.133 81.7852C155.914 81.2188 156.598 80.5449 157.184 79.7637C157.789 78.9824 158.277 78.1133 158.648 77.1562L162.926 78.7383C162.281 80.2812 161.393 81.6191 160.26 82.752C159.146 83.8652 157.877 84.793 156.451 85.5352C155.045 86.2578 153.541 86.7949 151.939 87.1465C150.357 87.498 148.785 87.6738 147.223 87.6738C144.645 87.6738 142.262 87.2441 140.074 86.3848C137.887 85.5059 136.002 84.2852 134.42 82.7227C132.838 81.1602 131.598 79.2949 130.699 77.127C129.801 74.959 129.352 72.5859 129.352 70.0078C129.352 67.4297 129.801 65.0566 130.699 62.8887C131.598 60.7207 132.838 58.8555 134.42 57.293C136.002 55.7305 137.887 54.5195 140.074 53.6602C142.262 52.7812 144.645 52.3418 147.223 52.3418C148.473 52.3418 149.752 52.4297 151.061 52.6055C152.369 52.7812 153.639 53.0645 154.869 53.4551C156.1 53.8262 157.262 54.3145 158.355 54.9199C159.449 55.5254 160.396 56.2773 161.197 57.1758C162.018 58.0547 162.662 59.0801 163.131 60.252C163.619 61.4238 163.863 62.7617 163.863 64.2656ZM182.789 87H172.857V57.0879H166.705V53.1621H172.857V40.7109H182.789V53.1621H193.043V57.0879H182.789V87ZM226.529 76.1895C226.529 77.6738 226.314 78.9922 225.885 80.1445C225.455 81.2969 224.869 82.3027 224.127 83.1621C223.385 84.002 222.506 84.7148 221.49 85.3008C220.475 85.8672 219.381 86.3262 218.209 86.6777C217.057 87.0293 215.846 87.2832 214.576 87.4395C213.307 87.5957 212.047 87.6738 210.797 87.6738C209.117 87.6738 207.633 87.5664 206.344 87.3516C205.055 87.1367 203.824 86.7949 202.652 86.3262C201.48 85.8379 200.309 85.2129 199.137 84.4512C197.984 83.6895 196.695 82.7617 195.27 81.668L201.041 76.9512C201.568 77.9473 202.262 78.8555 203.121 79.6758C204 80.4766 204.908 81.1699 205.846 81.7559C206.783 82.3418 207.691 82.791 208.57 83.1035C209.449 83.416 210.162 83.5723 210.709 83.5723C211.158 83.5723 211.666 83.5625 212.232 83.543C212.799 83.5039 213.375 83.4453 213.961 83.3672C214.547 83.2695 215.123 83.1328 215.689 82.957C216.256 82.7812 216.754 82.5469 217.184 82.2539C217.633 81.9414 217.984 81.5605 218.238 81.1113C218.512 80.6426 218.648 80.0859 218.648 79.4414C218.648 78.7773 218.473 78.2012 218.121 77.7129C217.789 77.2051 217.35 76.7656 216.803 76.3945C216.256 76.0234 215.631 75.7109 214.928 75.457C214.225 75.2031 213.512 74.9785 212.789 74.7832C212.086 74.5879 211.402 74.4219 210.738 74.2852C210.074 74.1289 209.498 73.9824 209.01 73.8457C208.111 73.5918 207.164 73.3379 206.168 73.084C205.172 72.8105 204.186 72.5078 203.209 72.1758C202.232 71.8242 201.295 71.4141 200.396 70.9453C199.518 70.4766 198.736 69.9199 198.053 69.2754C197.389 68.6113 196.852 67.8398 196.441 66.9609C196.051 66.0625 195.855 65.0176 195.855 63.8262C195.855 61.6387 196.285 59.8125 197.145 58.3477C198.023 56.8633 199.176 55.6816 200.602 54.8027C202.027 53.9043 203.648 53.2695 205.465 52.8984C207.281 52.5273 209.127 52.3418 211.002 52.3418C212.291 52.3418 213.648 52.4785 215.074 52.752C216.5 53.0059 217.887 53.3965 219.234 53.9238C220.582 54.4316 221.842 55.0566 223.014 55.7988C224.186 56.541 225.162 57.3906 225.943 58.3477L220.172 63.0938C219.742 61.9219 219.176 60.916 218.473 60.0762C217.789 59.2363 217.037 58.5527 216.217 58.0254C215.416 57.4785 214.586 57.0781 213.727 56.8242C212.887 56.5703 212.105 56.4434 211.383 56.4434C210.68 56.4434 209.889 56.4727 209.01 56.5312C208.131 56.5898 207.301 56.7559 206.52 57.0293C205.758 57.3027 205.104 57.7227 204.557 58.2891C204.029 58.8359 203.766 59.5977 203.766 60.5742C203.766 61.2773 203.922 61.8828 204.234 62.3906C204.566 62.8789 204.996 63.3086 205.523 63.6797C206.051 64.0312 206.646 64.334 207.311 64.5879C207.994 64.8223 208.688 65.0371 209.391 65.2324C210.094 65.4082 210.777 65.5645 211.441 65.7012C212.105 65.8379 212.701 65.9844 213.229 66.1406C214.127 66.3945 215.074 66.6582 216.07 66.9316C217.086 67.1855 218.082 67.4883 219.059 67.8398C220.035 68.1719 220.973 68.5723 221.871 69.041C222.789 69.4902 223.59 70.0469 224.273 70.7109C224.957 71.375 225.504 72.1562 225.914 73.0547C226.324 73.9336 226.529 74.9785 226.529 76.1895Z" fill="#7BBDC3"/>
</g>
<defs>
<filter id="filter0_d" x="-245" y="-246" width="754" height="615" filterUnits="userSpaceOnUse" color-interpolation-filters="sRGB">
<feFlood flood-opacity="0" result="BackgroundImageFix"/>
<feColorMatrix in="SourceAlpha" type="matrix" values="0 0 0 0 0 0 0 0 0 0 0 0 0 0 0 0 0 0 127 0" result="hardAlpha"/>
<feOffset dx="5" dy="4"/>
<feGaussianBlur stdDeviation="125"/>
<feComposite in2="hardAlpha" operator="out"/>
<feColorMatrix type="matrix" values="0 0 0 0 0.968627 0 0 0 0 0.972549 0 0 0 0 0.956863 0 0 0 1 0"/>
<feBlend mode="normal" in2="BackgroundImageFix" result="effect1_dropShadow"/>
<feBlend mode="normal" in="SourceGraphic" in2="effect1_dropShadow" result="shape"/>
</filter>
<filter id="filter1_d" x="15.3076" y="17.5781" width="74.3867" height="80.4219" filterUnits="userSpaceOnUse" color-interpolation-filters="sRGB">
<feFlood flood-opacity="0" result="BackgroundImageFix"/>
<feColorMatrix in="SourceAlpha" type="matrix" values="0 0 0 0 0 0 0 0 0 0 0 0 0 0 0 0 0 0 127 0" result="hardAlpha"/>
<feOffset dy="4"/>
<feGaussianBlur stdDeviation="2"/>
<feComposite in2="hardAlpha" operator="out"/>
<feColorMatrix type="matrix" values="0 0 0 0 0 0 0 0 0 0 0 0 0 0 0 0 0 0 0.25 0"/>
<feBlend mode="normal" in2="BackgroundImageFix" result="effect1_dropShadow"/>
<feBlend mode="normal" in="SourceGraphic" in2="effect1_dropShadow" result="shape"/>
</filter>
<filter id="filter2_d" x="88.7754" y="40.7109" width="143.754" height="50.9629" filterUnits="userSpaceOnUse" color-interpolation-filters="sRGB">
<feFlood flood-opacity="0" result="BackgroundImageFix"/>
<feColorMatrix in="SourceAlpha" type="matrix" values="0 0 0 0 0 0 0 0 0 0 0 0 0 0 0 0 0 0 127 0" result="hardAlpha"/>
<feOffset dx="6" dy="4"/>
<feComposite in2="hardAlpha" operator="out"/>
<feColorMatrix type="matrix" values="0 0 0 0 0 0 0 0 0 0 0 0 0 0 0 0 0 0 0.25 0"/>
<feBlend mode="normal" in2="BackgroundImageFix" result="effect1_dropShadow"/>
<feBlend mode="normal" in="SourceGraphic" in2="effect1_dropShadow" result="shape"/>
</filter>
</defs>
</svg>
