<svg width="257" height="408" viewBox="0 0 257 408" fill="none" xmlns="http://www.w3.org/2000/svg">
<mask id="path-1-inside-1" fill="white">
<path d="M95.0523 1.02005C95.0523 3.57007 98.256 26.1375 100.544 39.6844C101.777 47.2069 104.171 59.4788 105.051 62.9213C105.332 64.005 105.508 64.8976 105.473 64.9613C105.332 65.0569 97.059 52.7532 93.3977 47.0157C89.3842 40.7363 85.9693 35.1263 79.914 24.8625C73.6122 14.1526 71.9223 11.4751 71.4295 11.4751C70.9718 11.4751 71.0422 12.1125 71.8519 15.7144C72.8377 20.1451 79.5267 44.5932 81.4278 50.6813L82.9769 55.6219L81.1814 55.8769C64.9164 58.14 55.6926 61.9969 46.1519 70.5075C34.6749 80.7713 24.2541 96.0713 10.0311 123.516C1.47618 140.027 -0.882589 145.35 0.314397 145.35C0.91289 145.35 4.01097 142.928 6.68659 140.378C13.6573 133.684 27.5634 120.806 27.6691 120.902C27.7395 120.934 26.8241 123.133 25.6623 125.747C21.5785 134.895 17.1778 147.741 12.7067 163.678C10.0663 173.177 9.57344 176.269 10.7352 176.269C11.4393 176.269 14.3262 173.241 19.0437 167.599C24.4654 161.064 24.4654 161.033 23.2684 163.71C22.7051 164.953 22.1418 166.388 22.001 166.961C21.6841 168.396 22.4938 168.3 24.4301 166.706L25.944 165.431L26.1904 171.264C26.7889 186.054 29.5701 199.314 35.1678 214.519C41.9273 232.719 47.3489 246.011 48.6515 247.509C49.9893 249.071 50.1654 248.243 50.3414 238.68L50.5174 229.723L53.7211 233.357C59.9525 240.433 69.7748 248.338 78.3297 253.247C81.5334 255.064 91.4262 259.686 93.5737 260.355C94.3834 260.61 94.7003 260.897 94.6299 261.248C94.5595 261.598 81.8151 266.921 55.9743 277.472L17.4243 293.186L16.8258 294.557C16.0512 296.342 16.016 299.051 16.7554 300.454C17.5651 301.984 19.8182 303.705 22.3178 304.725C27.317 306.733 33.0203 307.721 47.701 309.188C61.079 310.494 63.0506 310.749 67.24 311.451C75.4429 312.853 79.3155 314.574 80.6533 317.348C81.3222 318.686 81.3222 318.75 80.4421 325.348C78.1185 342.911 77.4144 351.454 77.2032 364.586C76.9919 376.38 77.2736 381.99 78.3649 388.238C80.0548 398.183 83.9978 405.131 89.1378 407.299C90.0532 407.681 90.8981 408 90.9685 408C91.0389 408 95.2988 401.338 100.368 393.178C106.917 382.755 109.839 378.356 110.226 378.356C110.578 378.356 111.986 377.783 113.43 377.113C114.838 376.412 117.267 375.519 118.816 375.073C127.23 372.683 148.001 370.101 166.519 369.113C175.145 368.634 180.602 368.985 186.939 370.388C188.382 370.738 191.022 371.153 192.748 371.376C198.345 372.013 203.661 374.181 208.52 377.719C211.547 379.918 212.991 381.448 215.244 384.795C218.553 389.736 227.355 395.76 230.875 395.505C231.896 395.441 232.283 395.186 232.882 394.294C233.48 393.338 233.621 392.509 233.727 388.748C233.832 384.221 233.551 381.321 232.318 374.213C229.96 360.825 223.834 339.182 218.448 325.284C214.082 314.001 213.976 313.65 213.906 311.196C213.871 309.156 213.976 308.805 214.927 307.562C216.23 305.873 218.448 304.534 224.961 301.378C233.691 297.139 239.36 293.919 245.732 289.584C250.238 286.493 251.365 285.313 251.365 283.656C251.365 281.966 250.696 280.883 248.548 279.129C244.324 275.687 235.874 272.181 220.032 267.272C201.971 261.694 203.168 262.172 198.803 258.889C197.219 257.678 195.177 256.243 194.261 255.669C192.783 254.777 188.312 252.769 185.953 251.94C185.143 251.653 185.178 251.589 186.833 250.569C194.508 245.661 204.084 237.309 208.59 231.508C209.188 230.743 209.752 230.138 209.928 230.138C210.069 230.138 210.174 232.273 210.174 234.887C210.174 237.533 210.35 240.051 210.561 240.561L210.949 241.453L211.758 240.593C212.216 240.114 213.413 237.819 214.399 235.493C216.406 230.903 225.876 206.391 227.073 202.789C227.46 201.546 228.023 200.462 228.34 200.366C228.692 200.239 228.833 199.793 228.798 198.836C228.798 198.071 229.256 195.681 229.854 193.481C230.945 189.433 232.706 181.178 232.706 180.062C232.706 179.743 232.811 179.456 232.917 179.456C233.023 179.456 235.135 181.178 237.635 183.313C242.387 187.361 245.485 189.656 246.26 189.656C248.091 189.656 246.823 186.533 238.339 170.053L234.572 162.722L234.325 156.443C234.114 149.94 233.797 146.402 232.847 140.473C232.53 138.561 232.354 136.967 232.424 136.903C232.495 136.839 235.874 138.943 239.923 141.589C252.984 150.036 256.047 151.757 256.751 151.119C257.526 150.418 254.815 146.211 245.204 133.078C234.677 118.703 228.728 111.371 220.56 102.829C218.236 100.406 215.244 97.2188 213.941 95.7525C211.618 93.1707 209.188 91.0988 206.654 89.5688C205.985 89.1544 204.33 88.0388 203.028 87.0826L200.634 85.3294L201.795 84.5007C207.639 80.3888 217.638 71.8144 229.326 60.945C241.437 49.6294 245.415 45.2625 243.619 45.2625C242.739 45.2625 238.233 47.0475 227.777 51.5738C216.159 56.5782 209.012 59.5425 200.141 63.0488C192.29 66.1725 182.89 69.7107 182.784 69.6151C182.714 69.5832 183.348 68.9775 184.193 68.3401C193.452 60.9769 220.032 34.6482 220.032 32.7994C220.032 31.8113 216.969 33.1182 200.845 40.9594C190.917 45.8044 171.237 54.57 161.943 58.2675C150.255 62.9213 142.404 65.8538 142.685 65.4394C152.472 50.1394 156.415 44.3063 166.414 30.2813C174.441 19.0294 175.039 18.0732 174.898 17.2444C174.793 16.6069 174.793 16.6069 173.279 17.2763C170.603 18.5194 152.437 31.1419 142.298 38.8238C135.363 44.0832 132.229 46.6332 125.646 52.4982L119.802 57.7257L119.274 56.5144C111.81 39.9076 108.501 32.0344 101.565 14.5032C98.9953 8.00067 96.6718 2.19943 96.3549 1.56192C95.6156 -0.0636902 95.0523 -0.286835 95.0523 1.02005Z"/>
</mask>
<path d="M95.0523 1.02005C95.0523 3.57007 98.256 26.1375 100.544 39.6844C101.777 47.2069 104.171 59.4788 105.051 62.9213C105.332 64.005 105.508 64.8976 105.473 64.9613C105.332 65.0569 97.059 52.7532 93.3977 47.0157C89.3842 40.7363 85.9693 35.1263 79.914 24.8625C73.6122 14.1526 71.9223 11.4751 71.4295 11.4751C70.9718 11.4751 71.0422 12.1125 71.8519 15.7144C72.8377 20.1451 79.5267 44.5932 81.4278 50.6813L82.9769 55.6219L81.1814 55.8769C64.9164 58.14 55.6926 61.9969 46.1519 70.5075C34.6749 80.7713 24.2541 96.0713 10.0311 123.516C1.47618 140.027 -0.882589 145.35 0.314397 145.35C0.91289 145.35 4.01097 142.928 6.68659 140.378C13.6573 133.684 27.5634 120.806 27.6691 120.902C27.7395 120.934 26.8241 123.133 25.6623 125.747C21.5785 134.895 17.1778 147.741 12.7067 163.678C10.0663 173.177 9.57344 176.269 10.7352 176.269C11.4393 176.269 14.3262 173.241 19.0437 167.599C24.4654 161.064 24.4654 161.033 23.2684 163.71C22.7051 164.953 22.1418 166.388 22.001 166.961C21.6841 168.396 22.4938 168.3 24.4301 166.706L25.944 165.431L26.1904 171.264C26.7889 186.054 29.5701 199.314 35.1678 214.519C41.9273 232.719 47.3489 246.011 48.6515 247.509C49.9893 249.071 50.1654 248.243 50.3414 238.68L50.5174 229.723L53.7211 233.357C59.9525 240.433 69.7748 248.338 78.3297 253.247C81.5334 255.064 91.4262 259.686 93.5737 260.355C94.3834 260.61 94.7003 260.897 94.6299 261.248C94.5595 261.598 81.8151 266.921 55.9743 277.472L17.4243 293.186L16.8258 294.557C16.0512 296.342 16.016 299.051 16.7554 300.454C17.5651 301.984 19.8182 303.705 22.3178 304.725C27.317 306.733 33.0203 307.721 47.701 309.188C61.079 310.494 63.0506 310.749 67.24 311.451C75.4429 312.853 79.3155 314.574 80.6533 317.348C81.3222 318.686 81.3222 318.75 80.4421 325.348C78.1185 342.911 77.4144 351.454 77.2032 364.586C76.9919 376.38 77.2736 381.99 78.3649 388.238C80.0548 398.183 83.9978 405.131 89.1378 407.299C90.0532 407.681 90.8981 408 90.9685 408C91.0389 408 95.2988 401.338 100.368 393.178C106.917 382.755 109.839 378.356 110.226 378.356C110.578 378.356 111.986 377.783 113.43 377.113C114.838 376.412 117.267 375.519 118.816 375.073C127.23 372.683 148.001 370.101 166.519 369.113C175.145 368.634 180.602 368.985 186.939 370.388C188.382 370.738 191.022 371.153 192.748 371.376C198.345 372.013 203.661 374.181 208.52 377.719C211.547 379.918 212.991 381.448 215.244 384.795C218.553 389.736 227.355 395.76 230.875 395.505C231.896 395.441 232.283 395.186 232.882 394.294C233.48 393.338 233.621 392.509 233.727 388.748C233.832 384.221 233.551 381.321 232.318 374.213C229.96 360.825 223.834 339.182 218.448 325.284C214.082 314.001 213.976 313.65 213.906 311.196C213.871 309.156 213.976 308.805 214.927 307.562C216.23 305.873 218.448 304.534 224.961 301.378C233.691 297.139 239.36 293.919 245.732 289.584C250.238 286.493 251.365 285.313 251.365 283.656C251.365 281.966 250.696 280.883 248.548 279.129C244.324 275.687 235.874 272.181 220.032 267.272C201.971 261.694 203.168 262.172 198.803 258.889C197.219 257.678 195.177 256.243 194.261 255.669C192.783 254.777 188.312 252.769 185.953 251.94C185.143 251.653 185.178 251.589 186.833 250.569C194.508 245.661 204.084 237.309 208.59 231.508C209.188 230.743 209.752 230.138 209.928 230.138C210.069 230.138 210.174 232.273 210.174 234.887C210.174 237.533 210.35 240.051 210.561 240.561L210.949 241.453L211.758 240.593C212.216 240.114 213.413 237.819 214.399 235.493C216.406 230.903 225.876 206.391 227.073 202.789C227.46 201.546 228.023 200.462 228.34 200.366C228.692 200.239 228.833 199.793 228.798 198.836C228.798 198.071 229.256 195.681 229.854 193.481C230.945 189.433 232.706 181.178 232.706 180.062C232.706 179.743 232.811 179.456 232.917 179.456C233.023 179.456 235.135 181.178 237.635 183.313C242.387 187.361 245.485 189.656 246.26 189.656C248.091 189.656 246.823 186.533 238.339 170.053L234.572 162.722L234.325 156.443C234.114 149.94 233.797 146.402 232.847 140.473C232.53 138.561 232.354 136.967 232.424 136.903C232.495 136.839 235.874 138.943 239.923 141.589C252.984 150.036 256.047 151.757 256.751 151.119C257.526 150.418 254.815 146.211 245.204 133.078C234.677 118.703 228.728 111.371 220.56 102.829C218.236 100.406 215.244 97.2188 213.941 95.7525C211.618 93.1707 209.188 91.0988 206.654 89.5688C205.985 89.1544 204.33 88.0388 203.028 87.0826L200.634 85.3294L201.795 84.5007C207.639 80.3888 217.638 71.8144 229.326 60.945C241.437 49.6294 245.415 45.2625 243.619 45.2625C242.739 45.2625 238.233 47.0475 227.777 51.5738C216.159 56.5782 209.012 59.5425 200.141 63.0488C192.29 66.1725 182.89 69.7107 182.784 69.6151C182.714 69.5832 183.348 68.9775 184.193 68.3401C193.452 60.9769 220.032 34.6482 220.032 32.7994C220.032 31.8113 216.969 33.1182 200.845 40.9594C190.917 45.8044 171.237 54.57 161.943 58.2675C150.255 62.9213 142.404 65.8538 142.685 65.4394C152.472 50.1394 156.415 44.3063 166.414 30.2813C174.441 19.0294 175.039 18.0732 174.898 17.2444C174.793 16.6069 174.793 16.6069 173.279 17.2763C170.603 18.5194 152.437 31.1419 142.298 38.8238C135.363 44.0832 132.229 46.6332 125.646 52.4982L119.802 57.7257L119.274 56.5144C111.81 39.9076 108.501 32.0344 101.565 14.5032C98.9953 8.00067 96.6718 2.19943 96.3549 1.56192C95.6156 -0.0636902 95.0523 -0.286835 95.0523 1.02005Z" fill="#323470" stroke="white" stroke-width="2" mask="url(#path-1-inside-1)"/>
</svg>
