<?xml version="1.0" standalone="no"?>
<!DOCTYPE svg PUBLIC "-//W3C//DTD SVG 20010904//EN"
 "http://www.w3.org/TR/2001/REC-SVG-20010904/DTD/svg10.dtd">
<svg version="1.0" xmlns="http://www.w3.org/2000/svg"
 width="730.000000pt" height="1280.000000pt" viewBox="0 0 730.000000 1280.000000"
 preserveAspectRatio="xMidYMid meet">
<metadata>
Created by potrace 1.15, written by Peter Selinger 2001-2017
</metadata>
<g transform="translate(0.000000,1280.000000) scale(0.100000,-0.100000)"
fill="#000000" stroke="none">
<path d="M2700 12768 c0 -80 91 -788 156 -1213 35 -236 103 -621 128 -729 8
-34 13 -62 12 -64 -4 -3 -239 383 -343 563 -114 197 -211 373 -383 695 -179
336 -227 420 -241 420 -13 0 -11 -20 12 -133 28 -139 218 -906 272 -1097 l44
-155 -51 -8 c-462 -71 -724 -192 -995 -459 -326 -322 -622 -802 -1026 -1663
-243 -518 -310 -685 -276 -685 17 0 105 76 181 156 198 210 593 614 596 611 2
-1 -24 -70 -57 -152 -116 -287 -241 -690 -368 -1190 -75 -298 -89 -395 -56
-395 20 0 102 95 236 272 154 205 154 206 120 122 -16 -39 -32 -84 -36 -102
-9 -45 14 -42 69 8 l43 40 7 -183 c17 -464 96 -880 255 -1357 192 -571 346
-988 383 -1035 38 -49 43 -23 48 277 l5 281 91 -114 c177 -222 456 -470 699
-624 91 -57 372 -202 433 -223 23 -8 32 -17 30 -28 -2 -11 -364 -178 -1098
-509 l-1095 -493 -17 -43 c-22 -56 -23 -141 -2 -185 23 -48 87 -102 158 -134
142 -63 304 -94 721 -140 380 -41 436 -49 555 -71 233 -44 343 -98 381 -185
19 -42 19 -44 -6 -251 -66 -551 -86 -819 -92 -1231 -6 -370 2 -546 33 -742 48
-312 160 -530 306 -598 26 -12 50 -22 52 -22 2 0 123 209 267 465 186 327 269
465 280 465 10 0 50 18 91 39 40 22 109 50 153 64 239 75 829 156 1355 187
245 15 400 4 580 -40 41 -11 116 -24 165 -31 159 -20 310 -88 448 -199 86 -69
127 -117 191 -222 94 -155 344 -344 444 -336 29 2 40 10 57 38 17 30 21 56 24
174 3 142 -5 233 -40 456 -67 420 -241 1099 -394 1535 -124 354 -127 365 -129
442 -1 64 2 75 29 114 37 53 100 95 285 194 248 133 409 234 590 370 128 97
160 134 160 186 0 53 -19 87 -80 142 -120 108 -360 218 -810 372 -513 175
-479 160 -603 263 -45 38 -103 83 -129 101 -42 28 -169 91 -236 117 -23 9 -22
11 25 43 218 154 490 416 618 598 17 24 33 43 38 43 4 0 7 -67 7 -149 0 -83 5
-162 11 -178 l11 -28 23 27 c13 15 47 87 75 160 57 144 326 913 360 1026 11
39 27 73 36 76 10 4 14 18 13 48 0 24 13 99 30 168 31 127 81 386 81 421 0 10
3 19 6 19 3 0 63 -54 134 -121 135 -127 223 -199 245 -199 52 0 16 98 -225
615 l-107 230 -7 197 c-6 204 -15 315 -42 501 -9 60 -14 110 -12 112 2 2 98
-64 213 -147 371 -265 458 -319 478 -299 22 22 -55 154 -328 566 -299 451
-468 681 -700 949 -66 76 -151 176 -188 222 -66 81 -135 146 -207 194 -19 13
-66 48 -103 78 l-68 55 33 26 c166 129 450 398 782 739 344 355 457 492 406
492 -25 0 -153 -56 -450 -198 -330 -157 -533 -250 -785 -360 -223 -98 -490
-209 -493 -206 -2 1 16 20 40 40 263 231 1018 1057 1018 1115 0 31 -87 -10
-545 -256 -282 -152 -841 -427 -1105 -543 -332 -146 -555 -238 -547 -225 278
480 390 663 674 1103 228 353 245 383 241 409 -3 20 -3 20 -46 -1 -76 -39
-592 -435 -880 -676 -197 -165 -286 -245 -473 -429 l-166 -164 -15 38 c-212
521 -306 768 -503 1318 -73 204 -139 386 -148 406 -21 51 -37 58 -37 17z"/>
</g>
</svg>
