<svg width="730" height="1280" viewBox="0 0 730 1280" fill="none" xmlns="http://www.w3.org/2000/svg">
<path d="M270 3.19998C270 11.2 279.1 82 285.6 124.5C289.1 148.1 295.9 186.6 298.4 197.4C299.2 200.8 299.7 203.6 299.6 203.8C299.2 204.1 275.7 165.5 265.3 147.5C253.9 127.8 244.2 110.2 227 78C209.1 44.4 204.3 36 202.9 36C201.6 36 201.8 38 204.1 49.3C206.9 63.2 225.9 139.9 231.3 159L235.7 174.5L230.6 175.3C184.4 182.4 158.2 194.5 131.1 221.2C98.5 253.4 68.9 301.4 28.5 387.5C4.20001 439.3 -2.49999 456 0.900009 456C2.60001 456 11.4 448.4 19 440.4C38.8 419.4 78.3 379 78.6 379.3C78.8 379.4 76.2 386.3 72.9 394.5C61.3 423.2 48.8 463.5 36.1 513.5C28.6 543.3 27.2 553 30.5 553C32.5 553 40.7 543.5 54.1 525.8C69.5 505.3 69.5 505.2 66.1 513.6C64.5 517.5 62.9 522 62.5 523.8C61.6 528.3 63.9 528 69.4 523L73.7 519L74.4 537.3C76.1 583.7 84 625.3 99.9 673C119.1 730.1 134.5 771.8 138.2 776.5C142 781.4 142.5 778.8 143 748.8L143.5 720.7L152.6 732.1C170.3 754.3 198.2 779.1 222.5 794.5C231.6 800.2 259.7 814.7 265.8 816.8C268.1 817.6 269 818.5 268.8 819.6C268.6 820.7 232.4 837.4 159 870.5L49.5 919.8L47.8 924.1C45.6 929.7 45.5 938.2 47.6 942.6C49.9 947.4 56.3 952.8 63.4 956C77.6 962.3 93.8 965.4 135.5 970C173.5 974.1 179.1 974.9 191 977.1C214.3 981.5 225.3 986.9 229.1 995.6C231 999.8 231 1000 228.5 1020.7C221.9 1075.8 219.9 1102.6 219.3 1143.8C218.7 1180.8 219.5 1198.4 222.6 1218C227.4 1249.2 238.6 1271 253.2 1277.8C255.8 1279 258.2 1280 258.4 1280C258.6 1280 270.7 1259.1 285.1 1233.5C303.7 1200.8 312 1187 313.1 1187C314.1 1187 318.1 1185.2 322.2 1183.1C326.2 1180.9 333.1 1178.1 337.5 1176.7C361.4 1169.2 420.4 1161.1 473 1158C497.5 1156.5 513 1157.6 531 1162C535.1 1163.1 542.6 1164.4 547.5 1165.1C563.4 1167.1 578.5 1173.9 592.3 1185C600.9 1191.9 605 1196.7 611.4 1207.2C620.8 1222.7 645.8 1241.6 655.8 1240.8C658.7 1240.6 659.8 1239.8 661.5 1237C663.2 1234 663.6 1231.4 663.9 1219.6C664.2 1205.4 663.4 1196.3 659.9 1174C653.2 1132 635.8 1064.1 620.5 1020.5C608.1 985.1 607.8 984 607.6 976.3C607.5 969.9 607.8 968.8 610.5 964.9C614.2 959.6 620.5 955.4 639 945.5C663.8 932.2 679.9 922.1 698 908.5C710.8 898.8 714 895.1 714 889.9C714 884.6 712.1 881.2 706 875.7C694 864.9 670 853.9 625 838.5C573.7 821 577.1 822.5 564.7 812.2C560.2 808.4 554.4 803.9 551.8 802.1C547.6 799.3 534.9 793 528.2 790.4C525.9 789.5 526 789.3 530.7 786.1C552.5 770.7 579.7 744.5 592.5 726.3C594.2 723.9 595.8 722 596.3 722C596.7 722 597 728.7 597 736.9C597 745.2 597.5 753.1 598.1 754.7L599.2 757.5L601.5 754.8C602.8 753.3 606.2 746.1 609 738.8C614.7 724.4 641.6 647.5 645 636.2C646.1 632.3 647.7 628.9 648.6 628.6C649.6 628.2 650 626.8 649.9 623.8C649.9 621.4 651.2 613.9 652.9 607C656 594.3 661 568.4 661 564.9C661 563.9 661.3 563 661.6 563C661.9 563 667.9 568.4 675 575.1C688.5 587.8 697.3 595 699.5 595C704.7 595 701.1 585.2 677 533.5L666.3 510.5L665.6 490.8C665 470.4 664.1 459.3 661.4 440.7C660.5 434.7 660 429.7 660.2 429.5C660.4 429.3 670 435.9 681.5 444.2C718.6 470.7 727.3 476.1 729.3 474.1C731.5 471.9 723.8 458.7 696.5 417.5C666.6 372.4 649.7 349.4 626.5 322.6C619.9 315 611.4 305 607.7 300.4C601.1 292.3 594.2 285.8 587 281C585.1 279.7 580.4 276.2 576.7 273.2L569.9 267.7L573.2 265.1C589.8 252.2 618.2 225.3 651.4 191.2C685.8 155.7 697.1 142 692 142C689.5 142 676.7 147.6 647 161.8C614 177.5 593.7 186.8 568.5 197.8C546.2 207.6 519.5 218.7 519.2 218.4C519 218.3 520.8 216.4 523.2 214.4C549.5 191.3 625 108.7 625 102.9C625 99.8 616.3 103.9 570.5 128.5C542.3 143.7 486.4 171.2 460 182.8C426.8 197.4 404.5 206.6 405.3 205.3C433.1 157.3 444.3 139 472.7 95C495.5 59.7 497.2 56.7 496.8 54.1C496.5 52.1 496.5 52.1 492.2 54.2C484.6 58.1 433 97.7 404.2 121.8C384.5 138.3 375.6 146.3 356.9 164.7L340.3 181.1L338.8 177.3C317.6 125.2 308.2 100.5 288.5 45.5C281.2 25.1 274.6 6.89998 273.7 4.89998C271.6 -0.200019 270 -0.900019 270 3.19998Z" fill="#182980"/>
</svg>
